<svg width="125" height="114" viewBox="0 0 125 114" fill="none" xmlns="http://www.w3.org/2000/svg">
<g clip-path="url(#clip0_2014_4134)">
<path d="M0 82.8629C0 70.8032 3.94354 67.7656 19.5103 67.7656C35.0771 67.7656 39.0206 70.8032 39.0206 82.8629C39.0206 94.9225 35.0771 97.9601 19.5103 97.9601C3.94354 97.9601 0 94.9225 0 82.8629ZM31.9461 91.4599V74.2687C27.8719 73.7983 23.7976 73.5404 19.5103 73.5404C15.223 73.5404 11.1487 73.7983 7.07451 74.2687V91.4599C11.1487 91.9303 15.223 92.1881 19.5103 92.1881C23.7976 92.1881 27.8719 91.9303 31.9461 91.4599Z" fill="#19322F"/>
<path d="M82.3312 97.1887V97.4012H73.5406L62.4771 86.6251H54.2434V97.4012H47.811V68.3203H70.6654C78.5979 68.3203 81.8994 71.0575 81.8994 77.4727C81.8994 83.8879 78.7684 86.4976 71.2649 86.6251L82.3284 97.1887H82.3312ZM54.2463 73.6673V81.2782H75.0436V73.6673H54.2463Z" fill="#19322F"/>
<path d="M90.2666 97.4012V68.3203H101.33L118.61 93.4229H118.781V68.3203H124.997V97.4012H113.934L96.6535 72.2986H96.4831V97.4012H90.2666Z" fill="#19322F"/>
<path d="M88.4171 32.625C87.9909 32.88 87.5647 33.1237 87.1357 33.3702C85.4708 34.3053 83.7547 35.1469 81.9705 35.8808C81.8199 35.9459 81.6721 36.0083 81.513 36.0621C81.3 36.1585 81.0869 36.2435 80.8738 36.3285C80.9704 36.5297 81.067 36.7422 81.1522 36.9575C81.2176 37.0964 81.2801 37.2437 81.334 37.3939C82.0699 39.1819 82.7007 41.001 83.2007 42.8428C83.3399 43.3104 83.4678 43.7892 83.5843 44.2568C84.2576 44.0018 84.9281 43.7354 85.5901 43.4492C87.5534 42.619 89.4626 41.6839 91.3094 40.6412C90.744 38.6095 90.0621 36.5977 89.2723 34.617C88.9938 33.9454 88.7182 33.2881 88.4199 32.6278L88.4171 32.625Z" fill="#C4D67A"/>
<path d="M36.5829 24.8466C37.0091 24.5916 37.4352 24.3366 37.8728 24.1014C39.5377 23.155 41.2651 22.3248 43.0465 21.5795C43.1858 21.5144 43.325 21.4634 43.4727 21.4095C43.6858 21.3132 43.8989 21.2282 44.1234 21.1432C44.0268 20.942 43.9415 20.7295 43.8563 20.5141C43.7909 20.3639 43.7284 20.2166 43.6631 20.0664C42.9386 18.2898 42.3078 16.4706 41.7964 14.6288C41.6572 14.1613 41.5294 13.6824 41.4129 13.2148C40.7395 13.4699 40.0804 13.7362 39.4184 14.0139C37.4551 14.8555 35.5345 15.8019 33.6877 16.8446C34.2531 18.8763 34.935 20.8768 35.7362 22.8461C36.0033 23.5177 36.2817 24.1864 36.5801 24.8466H36.5829Z" fill="#C4D67A"/>
<path d="M47.7316 5.71354C47.4532 6.37376 47.1861 7.03398 46.9304 7.7027C47.4106 7.81888 47.8794 7.94639 48.3595 8.08523C50.2063 8.59528 52.0303 9.22433 53.8231 9.95822C53.9737 10.0121 54.1214 10.0744 54.2606 10.1396C54.4737 10.2246 54.6868 10.3209 54.8914 10.4059C54.9766 10.1934 55.0618 9.98089 55.1471 9.76837C55.2011 9.61819 55.2636 9.47085 55.3289 9.332C56.0761 7.55536 56.9086 5.82972 57.8576 4.17208C58.0934 3.73571 58.3491 3.31068 58.6048 2.88564C57.9314 2.58812 57.2609 2.31043 56.5875 2.03557C54.6129 1.24784 52.6071 0.567786 50.57 0.00390625C49.5244 1.84572 48.5755 3.76121 47.7316 5.71921V5.71354Z" fill="#C4D67A"/>
<path d="M77.2569 51.7701C77.5439 51.0986 77.8109 50.4298 78.0666 49.7583C77.5979 49.6421 77.1177 49.5146 76.6489 49.3758C74.8021 48.8771 72.9668 48.248 71.1853 47.5141C71.0348 47.4603 70.8984 47.3979 70.7592 47.3328C70.5461 47.2478 70.333 47.1627 70.1199 47.0664C70.0347 47.2789 69.9494 47.4914 69.8528 47.6955C69.7988 47.8541 69.7363 48.0043 69.671 48.1545C68.9351 49.9311 68.0913 51.6454 67.1537 53.3059C66.9094 53.7309 66.6622 54.156 66.4065 54.5839C67.0685 54.8814 67.7305 55.1591 68.401 55.4339C70.387 56.2217 72.4014 56.9017 74.4413 57.4656C75.4869 55.6238 76.4245 53.731 77.2569 51.773V51.7701Z" fill="#C4D67A"/>
<path d="M85.5874 14.0263C84.9254 13.7486 84.2549 13.4738 83.5815 13.2188C83.465 13.6863 83.3372 14.1652 83.1979 14.6327C82.6979 16.4745 82.0672 18.2937 81.3313 20.0816C81.2773 20.2318 81.2148 20.3678 81.1495 20.518C81.0642 20.7305 80.9676 20.943 80.871 21.1471C81.0955 21.2321 81.3086 21.3171 81.5217 21.4134C81.6722 21.4673 81.82 21.5296 81.9706 21.5948C83.752 22.3287 85.4709 23.1702 87.1358 24.1053C87.562 24.349 87.9882 24.5955 88.4172 24.8505C88.7155 24.1903 88.9939 23.5301 89.2695 22.8614C90.0594 20.8835 90.7412 18.8717 91.3066 16.8372C89.4599 15.8058 87.5506 14.8679 85.5874 14.0291V14.0263Z" fill="#C4D67A"/>
<path d="M47.743 51.7697C48.5868 53.7277 49.5244 55.6319 50.5586 57.4737C52.5957 56.9098 54.6129 56.2298 56.5961 55.4307C57.2694 55.153 57.9399 54.8782 58.6019 54.5806C58.3462 54.1556 58.1019 53.7306 57.8547 53.3027C56.9171 51.6422 56.0733 49.9308 55.3374 48.1513C55.2721 48.0011 55.2096 47.8538 55.1556 47.7036C55.059 47.4911 54.9738 47.2785 54.8885 47.0547C54.6754 47.151 54.4624 47.2474 54.2493 47.3324C54.1101 47.3975 53.9623 47.4599 53.8117 47.5137C52.0303 48.2476 50.1949 48.8767 48.3482 49.3754C47.8794 49.5142 47.3992 49.6417 46.9304 49.7579C47.1861 50.4295 47.4646 51.0982 47.7402 51.7697H47.743Z" fill="#C4D67A"/>
<path d="M39.4214 43.4577C40.0834 43.7354 40.7454 44.0018 41.4159 44.2568C41.5324 43.7892 41.6602 43.3104 41.7995 42.8428C42.3109 41.001 42.9416 39.1819 43.6661 37.4052C43.7315 37.255 43.794 37.1077 43.8593 36.9575C43.9445 36.745 44.0298 36.5325 44.1264 36.3285C43.9133 36.2435 43.7002 36.1585 43.4871 36.0621C43.3365 36.0196 43.1888 35.9544 43.0496 35.8921C41.2682 35.1469 39.5379 34.3166 37.8758 33.3702C37.4383 33.135 37.0121 32.88 36.5859 32.625C36.2876 33.2852 36.0092 33.9539 35.7421 34.6255C34.9409 36.5948 34.259 38.5953 33.6936 40.627C35.5404 41.6697 37.461 42.6275 39.4242 43.4577H39.4214Z" fill="#C4D67A"/>
<path d="M77.2656 5.7153C76.4331 3.75731 75.4728 1.84182 74.4273 0C72.3901 0.563879 70.3843 1.24394 68.4097 2.043C67.7363 2.30936 67.0658 2.58705 66.4038 2.88457C66.6595 3.3096 66.9152 3.73464 67.151 4.17101C68.1 5.83148 68.9324 7.55429 69.6797 9.33093C69.745 9.48111 69.8075 9.62845 69.8615 9.77863C69.9467 9.97982 70.032 10.1923 70.1172 10.4077C70.3303 10.3113 70.532 10.2263 70.748 10.1413C70.8872 10.0762 71.0349 10.0252 71.1741 9.95998C72.9669 9.22609 74.7909 8.59704 76.6377 8.087C77.1178 7.94815 77.5866 7.82064 78.0668 7.70446C77.8111 7.03291 77.544 6.37552 77.2656 5.7153Z" fill="#C4D67A"/>
<path d="M77.868 25.4375C77.6833 25.6699 77.4958 25.8994 77.3083 26.1261C76.5781 27.0073 75.7825 27.8319 74.9444 28.6281C74.8734 28.6961 74.8052 28.7641 74.7256 28.8264C74.6262 28.9256 74.5239 29.0191 74.4216 29.1098C74.5182 29.2033 74.6177 29.3025 74.7114 29.4045C74.7768 29.4697 74.845 29.5377 74.9046 29.6113C75.6973 30.4586 76.4275 31.354 77.1094 32.2749C77.2855 32.5101 77.4617 32.7509 77.6265 32.989C77.9504 32.7028 78.2686 32.4109 78.5811 32.1105C79.5016 31.2265 80.3796 30.2999 81.1921 29.3252C80.4421 28.3051 79.638 27.3133 78.7686 26.3754C78.4731 26.0552 78.1748 25.7464 77.868 25.4403V25.4375Z" fill="#C4D67A"/>
<path d="M47.1267 32.0291C47.3113 31.7967 47.4988 31.5644 47.692 31.3377C48.4364 30.465 49.2178 29.6234 50.0587 28.83C50.1241 28.7648 50.1894 28.7053 50.2633 28.643C50.3627 28.5438 50.465 28.4503 50.573 28.3568C50.4764 28.2633 50.3855 28.1613 50.2889 28.0621C50.2235 27.9913 50.1525 27.9233 50.0872 27.8524C49.2945 27.0165 48.57 26.1154 47.8824 25.1945C47.7063 24.9593 47.5301 24.7185 47.3653 24.4805C47.0414 24.7667 46.7261 25.0528 46.4164 25.3504C45.4901 26.2344 44.6179 27.1752 43.8025 28.1499C44.5526 29.17 45.3623 30.1448 46.2288 31.0855C46.5215 31.4029 46.8198 31.7231 47.1267 32.0291Z" fill="#C4D67A"/>
<path d="M49.3201 18.9352C49.303 19.363 49.2945 19.7909 49.2945 20.2216C49.59 20.1848 49.8798 20.1593 50.1781 20.1338C51.3231 20.0374 52.4794 19.9977 53.6415 20.0289C53.7352 20.0289 53.8347 20.0289 53.9256 20.0374C54.0648 20.0374 54.204 20.0487 54.3347 20.0544C54.3347 19.9156 54.3404 19.7796 54.3433 19.6407C54.3433 19.5472 54.3433 19.448 54.3518 19.3574C54.3944 18.2013 54.508 17.0622 54.6728 15.9259C54.7154 15.6312 54.7637 15.3394 54.8177 15.0447C54.3773 15.0192 53.9426 15.005 53.5051 14.9937C52.2294 14.9625 50.9594 15.0107 49.6951 15.124C49.4991 16.3793 49.3684 17.6544 49.3172 18.9295L49.3201 18.9352Z" fill="#C4D67A"/>
<path d="M75.6747 38.5389C75.6946 38.1025 75.7003 37.669 75.7031 37.2383C75.4162 37.2723 75.1178 37.2978 74.8252 37.3233C73.6831 37.4196 72.521 37.4678 71.3647 37.4338C71.2681 37.4338 71.1771 37.4281 71.0862 37.4225C70.947 37.4225 70.8106 37.4168 70.6714 37.4083C70.6714 37.5471 70.6657 37.6832 70.6544 37.8163C70.6572 37.9183 70.6544 38.0147 70.6487 38.111C70.6061 39.2643 70.5095 40.4034 70.3305 41.534C70.285 41.8258 70.2367 42.1148 70.1827 42.4095C70.6174 42.4379 71.0465 42.4549 71.484 42.4662C72.7654 42.4974 74.041 42.4435 75.3054 42.3302C75.5014 41.0749 75.6264 39.814 75.6776 38.5389H75.6747Z" fill="#C4D67A"/>
<path d="M72.3309 15.5976C71.9019 15.5806 71.4643 15.5692 71.0325 15.5664C71.0666 15.8526 71.0921 16.1501 71.1177 16.442C71.2143 17.5811 71.2598 18.7343 71.2285 19.8933C71.2285 19.9868 71.2228 20.0803 71.22 20.1766C71.2143 20.3155 71.2086 20.4543 71.1973 20.5875C71.3422 20.5875 71.4785 20.5903 71.6178 20.5988C71.7115 20.5988 71.811 20.6017 71.9076 20.6045C73.0639 20.647 74.2061 20.7433 75.3397 20.9218C75.6323 20.9672 75.9221 21.0154 76.2176 21.0692C76.246 20.6357 76.2631 20.2078 76.2744 19.7714C76.3057 18.4935 76.2517 17.2212 76.1381 15.9603C74.8823 15.7704 73.6123 15.6429 72.3309 15.5919V15.5976Z" fill="#C4D67A"/>
<path d="M59.1133 44.7779C59.9969 45.7045 60.9345 46.5687 61.9062 47.382C62.929 46.6339 63.9206 45.8292 64.861 44.9593C65.1821 44.6646 65.4974 44.3642 65.8071 44.0582C65.5742 43.874 65.344 43.687 65.1167 43.5C64.2331 42.7718 63.4063 41.9784 62.608 41.1425C62.5398 41.0716 62.4716 41.0036 62.4119 40.93C62.3125 40.8308 62.2187 40.7288 62.125 40.6211C62.0255 40.7203 61.9261 40.8194 61.8238 40.913C61.7585 40.9781 61.6903 41.0461 61.6164 41.1056C60.7726 41.8934 59.8691 42.6244 58.9457 43.3045C58.7099 43.4802 58.4684 43.6558 58.2297 43.8202C58.5167 44.1432 58.8122 44.4606 59.1133 44.7779Z" fill="#C4D67A"/>
<path d="M52.6756 41.8757C53.1046 41.8899 53.5337 41.9012 53.9655 41.9012C53.9314 41.615 53.9059 41.3175 53.8803 41.0257C53.7865 39.8837 53.7325 38.7305 53.7723 37.58C53.7752 37.4837 53.7808 37.3845 53.7837 37.2882C53.7894 37.1493 53.7894 37.0133 53.8007 36.8801C53.6615 36.8801 53.5251 36.8745 53.3859 36.866C53.2922 36.8745 53.1956 36.8688 53.1046 36.8631C51.9455 36.8206 50.8033 36.7073 49.664 36.543C49.3685 36.5004 49.0759 36.4523 48.7804 36.3984C48.752 36.832 48.7406 37.2655 48.7321 37.699C48.7065 38.9741 48.7435 40.2408 48.8571 41.4989C50.1157 41.6944 51.3971 41.8247 52.6728 41.8757H52.6756Z" fill="#C4D67A"/>
<path d="M65.8926 12.6928C65.0089 11.7691 64.0628 10.8992 63.0855 10.0859C62.0627 10.834 61.0853 11.6416 60.142 12.5058C59.8238 12.7977 59.5028 13.0952 59.1959 13.4012C59.4289 13.5854 59.6619 13.7724 59.8892 13.9651C60.7642 14.7075 61.6052 15.4895 62.4036 16.3283C62.4718 16.3991 62.54 16.4671 62.5996 16.5408C62.6906 16.6371 62.7843 16.7363 62.8781 16.8383C62.9775 16.7391 63.0741 16.6485 63.1736 16.555C63.2389 16.4898 63.3099 16.4275 63.3753 16.3623C64.2248 15.5717 65.1198 14.8378 66.0431 14.1578C66.2846 13.9793 66.5205 13.8064 66.7648 13.6392C66.4778 13.3162 66.188 13.0045 65.8926 12.6928Z" fill="#C4D67A"/>
<path d="M64.8267 33.3616C64.1676 32.8176 63.5482 32.2254 62.9544 31.602C62.9033 31.5481 62.8521 31.4971 62.8067 31.4376C62.7328 31.3639 62.6618 31.2874 62.5936 31.2109C62.5225 31.2818 62.4487 31.3583 62.3748 31.4263C62.3265 31.4745 62.2754 31.5255 62.2214 31.5708C61.5878 32.1602 60.9173 32.7042 60.2269 33.2143C60.0507 33.3446 59.8717 33.475 59.6927 33.5996C59.9058 33.8405 60.1246 34.0785 60.3491 34.3109C61.011 34.9966 61.7043 35.6511 62.4345 36.2575C63.1987 35.6993 63.9403 35.1014 64.6421 34.4525C64.8807 34.2315 65.1137 34.0105 65.3438 33.781C65.1677 33.6421 64.9972 33.5033 64.8296 33.3644L64.8267 33.3616Z" fill="#C4D67A"/>
<path d="M64.6565 23.1654C63.9945 22.474 63.2899 21.8251 62.5597 21.2188C61.7954 21.777 61.0653 22.3805 60.3606 23.0237C60.122 23.2419 59.8833 23.4629 59.6532 23.6925C59.8294 23.8313 59.9998 23.9701 60.1703 24.1147C60.8238 24.67 61.4545 25.2509 62.0483 25.8771C62.0966 25.9253 62.1421 25.9735 62.1875 26.0273C62.2614 26.101 62.3324 26.1775 62.4034 26.2568C62.4745 26.186 62.5512 26.1152 62.6251 26.0471C62.679 25.9961 62.7302 25.9451 62.7813 25.897C63.4092 25.3076 64.0826 24.7664 64.7701 24.2563C64.9463 24.126 65.1253 23.9956 65.3043 23.871C65.0912 23.6301 64.8753 23.3949 64.6537 23.1626L64.6565 23.1654Z" fill="#C4D67A"/>
<path d="M57.8632 31.0584C58.4088 30.4011 59.0026 29.7833 59.6276 29.1911C59.6816 29.1401 59.7327 29.0891 59.7867 29.0438C59.8606 28.9701 59.9373 28.8993 60.0169 28.8284C59.943 28.7548 59.8691 28.6811 59.7981 28.6046C59.7498 28.5564 59.6986 28.5054 59.6532 28.4516C59.0622 27.8225 58.5167 27.151 58.0053 26.4624C57.8746 26.2867 57.7439 26.1082 57.6189 25.9297C57.3774 26.1422 57.1387 26.3632 56.9029 26.5871C56.2097 27.2445 55.5619 27.9444 54.951 28.6669C55.5108 29.4291 56.1131 30.1659 56.7666 30.8686C56.9882 31.1066 57.2126 31.3418 57.4428 31.5713C57.582 31.3956 57.7212 31.2256 57.8604 31.0556L57.8632 31.0584Z" fill="#C4D67A"/>
<path d="M70.0377 28.7943C69.478 28.0321 68.8728 27.3039 68.2279 26.604C68.0091 26.366 67.7875 26.128 67.5574 25.8984C67.4182 26.0741 67.2789 26.2441 67.134 26.4141C66.5772 27.0659 65.9919 27.6921 65.3668 28.2871C65.3129 28.3381 65.2617 28.3891 65.2077 28.4345C65.1367 28.5025 65.06 28.5705 64.9833 28.6413C65.0571 28.715 65.1253 28.7858 65.1935 28.8623C65.2418 28.9105 65.2873 28.9644 65.3384 29.0125C65.9294 29.6444 66.4806 30.3103 66.9891 30.9989C67.1227 31.1774 67.2505 31.353 67.3755 31.5372C67.617 31.3247 67.8529 31.1094 68.0858 30.8883C68.7762 30.231 69.4297 29.5254 70.0377 28.7972V28.7943Z" fill="#C4D67A"/>
<path d="M38.6003 110.324H43.1547V111.253C43.1547 113.401 42.3194 113.999 39.3021 113.999C36.2848 113.999 35.458 113.35 35.458 110.902C35.458 108.454 36.1172 107.805 38.7822 107.805C40.3136 107.805 41.6489 107.839 42.8195 107.918L42.8621 109.128C41.5069 109.015 40.1885 108.944 38.8873 108.901C38.2196 108.876 37.5605 108.867 36.9098 108.867V112.664C37.6571 112.761 38.4838 112.814 39.3447 112.814C40.2056 112.814 41.0324 112.761 41.7881 112.664V111.417H38.5947V110.321L38.6003 110.324Z" fill="#C4D67A"/>
<path d="M54.5421 113.844V113.887H52.738L50.4679 111.676H48.7802V113.887H47.4619V107.922H52.1498C53.7778 107.922 54.454 108.483 54.454 109.798C54.454 111.112 53.8119 111.648 52.272 111.674L54.5421 113.838V113.844ZM48.7831 109.018V110.58H53.0477V109.018H48.7831Z" fill="#C4D67A"/>
<path d="M58.5 110.902C58.5 108.428 59.3097 107.805 62.5004 107.805C65.691 107.805 66.5007 108.428 66.5007 110.902C66.5007 113.375 65.691 113.999 62.5004 113.999C59.3097 113.999 58.5 113.375 58.5 110.902ZM65.0489 112.664V109.139C64.2136 109.043 63.3783 108.989 62.4975 108.989C61.6168 108.989 60.7815 109.043 59.9462 109.139V112.664C60.7815 112.761 61.6168 112.814 62.4975 112.814C63.3783 112.814 64.2136 112.761 65.0489 112.664Z" fill="#C4D67A"/>
<path d="M70.8076 111.246V107.922H72.1259V112.685C72.8476 112.773 73.6289 112.815 74.4131 112.815C75.1972 112.815 75.9785 112.773 76.7002 112.685V107.922H78.0185V111.246C78.0185 113.43 77.2628 114 74.4131 114C71.5634 114 70.8076 113.43 70.8076 111.246Z" fill="#C4D67A"/>
<path d="M82.6357 113.887V107.922H87.2072C88.8693 107.922 89.5369 108.5 89.5369 109.914C89.5369 111.328 88.8693 111.914 87.2327 111.914H83.954V113.887H82.6357ZM83.954 110.772H88.0879V109.061H83.954V110.772Z" fill="#C4D67A"/>
</g>
<defs>
<clipPath id="clip0_2014_4134">
<rect width="125" height="114" fill="white"/>
</clipPath>
</defs>
</svg>
