<svg width="160" height="161" viewBox="0 0 160 161" fill="none" xmlns="http://www.w3.org/2000/svg">
<path d="M159.743 54.0905V0.316406H0.25708V160.675H123.827C143.627 160.675 159.732 144.512 159.732 124.642C159.732 104.772 143.627 88.6089 123.827 88.6089H118.908C125.273 82.5081 129.252 73.9288 129.252 64.4175C129.23 45.9773 114.264 30.9688 95.8895 30.9688H91.3617H39.9306H30.7062V130.086H39.9306V40.2366H82.1056H95.8895C109.177 40.2366 120.006 51.0931 120.017 64.428C120.017 77.763 109.209 88.6195 95.9106 88.6195H61.1764V97.8767H123.816C138.529 97.8767 150.497 109.888 150.497 124.653C150.497 139.417 138.529 151.428 123.816 151.428H9.47097V9.58416H150.497V54.1011H159.722L159.743 54.0905Z" fill="url(#paint0_linear_2014_4128)"/>
<defs>
<linearGradient id="paint0_linear_2014_4128" x1="-48.3876" y1="166.702" x2="269.2" y2="-66.9681" gradientUnits="userSpaceOnUse">
<stop stop-color="#BB9533"/>
<stop offset="0.44" stop-color="#F6EE88"/>
<stop offset="0.84" stop-color="#D3AD4A"/>
<stop offset="1" stop-color="#D9B043"/>
</linearGradient>
</defs>
</svg>
