<svg width="24" height="24" viewBox="0 0 24 24" fill="none" xmlns="http://www.w3.org/2000/svg">
<path d="M13.744 2.63102L21.272 7.52423C21.538 7.69713 21.671 7.78358 21.7674 7.8989C21.8527 8.00098 21.9167 8.11905 21.9558 8.24621C22 8.38985 22 8.54848 22 8.86574V16.1974C22 17.8776 22 18.7177 21.673 19.3594C21.3854 19.9239 20.9265 20.3828 20.362 20.6705C19.7202 20.9974 18.8802 20.9974 17.2 20.9974H6.8C5.11984 20.9974 4.27976 20.9974 3.63803 20.6705C3.07354 20.3828 2.6146 19.9239 2.32698 19.3594C2 18.7177 2 17.8776 2 16.1974V8.86574C2 8.54848 2 8.38985 2.04417 8.24621C2.08327 8.11905 2.14735 8.00098 2.23265 7.8989C2.32901 7.78358 2.46201 7.69713 2.72802 7.52423L10.256 2.63102M13.744 2.63102C13.1127 2.22071 12.7971 2.01555 12.457 1.93573C12.1564 1.86517 11.8436 1.86517 11.543 1.93573C11.2029 2.01555 10.8873 2.22071 10.256 2.63102M13.744 2.63102L19.9361 6.65593C20.624 7.10303 20.9679 7.32658 21.087 7.61008C21.1911 7.85783 21.1911 8.13705 21.087 8.3848C20.9679 8.6683 20.624 8.89185 19.9361 9.33895L13.744 13.3639C13.1127 13.7742 12.7971 13.9793 12.457 14.0591C12.1564 14.1297 11.8436 14.1297 11.543 14.0591C11.2029 13.9793 10.8873 13.7742 10.256 13.3639L4.06386 9.33895C3.37601 8.89185 3.03209 8.6683 2.91297 8.3848C2.80888 8.13705 2.80888 7.85783 2.91297 7.61008C3.03209 7.32658 3.37601 7.10303 4.06386 6.65593L10.256 2.63102M21.5 18.9974L14.8572 12.9974M9.14282 12.9974L2.5 18.9974" stroke="white" stroke-width="2" stroke-linecap="round" stroke-linejoin="round"/>
</svg>
